<svg version="1.1"
     baseProfile="full"
     width="100" height="100"
     viewbox="0 0 267 236"
     xmlns="http://www.w3.org/2000/svg">

  <style>
    .stroke {
      fill: transparent;
      stroke: rgba(0, 0, 0, 0.4);
      stroke-width: 4px;
      stroke-linecap: round;
      stroke-linejoin: round;
    }
    .dark-side {
      fill: rgba(0, 0, 0, 0.35);
    }
    .medium-side {
      fill: rgba(0, 0, 0, 0.2);
    }
    .top-side {
      fill: transparent
    }
    .dark-side,
    .medium-side,
    .top-side {
      stroke: rgba(255, 255, 255, 0.1);
      stroke-width: 2px;
      stroke-linecap: round;
      stroke-linejoin: round;
    }
  </style>

  <path 
    class="base"
    d="M 134 5
      L 16 66
      L 5 118
      L 16 170
      L 134 232
      L 251 170
      L 262 118
      L 251 66
      z" 
  />

  <path 
    class="medium-side"
    d="M 134 5
      L 16 66
      L 5 118
      L 16 170
      L 53 175
      z" 
  />

  <path 
    class="medium-side"
    d="M 134 5
      L 214 175
      L 251 170
      L 262 118
      L 251 66
      z" 
  />

  <path 
    class="dark-side"
    d="M 16 170
      L 53 175
      L 90 207
      z" 
  />

  <path 
    class="dark-side"
    d="M 251 170
      L 214 175
      L 177 207
      z" 
  />

  <path 
    class="dark-side"
    d="M 90 207
      L 177 207
      L 134 232
      z" 
  />


  <path 
    class="top-side"
    d="M 134 5
      L 53 175
      L 90 207
      L 177 207
      L 214 175
      z" 
  />

  <path 
    class="stroke"
    d="M 134 5
      L 16 66
      L 5 118
      L 16 170
      L 134 232
      L 251 170
      L 262 118
      L 251 66
      z" 
  />

</svg>