<svg version="1.1"
     baseProfile="full"
     width="100" height="100"
     viewbox="0 0 256 267"
     xmlns="http://www.w3.org/2000/svg">

  <style>
    .stroke {
      fill: transparent;
      stroke: rgba(0, 0, 0, 0.4);
      stroke-width: 4px;
      stroke-linecap: round;
      stroke-linejoin: round;
    }
    .dark-side {
      fill: rgba(0, 0, 0, 0.35);
    }
    .medium-side {
      fill: rgba(0, 0, 0, 0.2);
    }
    .top-side {
      fill: transparent;
    }
    .dark-side,
    .medium-side,
    .top-side {
      stroke: rgba(255, 255, 255, 0.1);
      stroke-width: 2px;
      stroke-linecap: round;
      stroke-linejoin: round;
    }
  </style>
 
  <path 
    class="base"
    d="M 128 6
      L 52 29
      L 6 94
      L 6 172
      L 52 236 
      L 128 262 
      L 204 236 
      L 250 172
      L 250 94
      L 204 29
      z" 
  />

  <path 
    class="medium-side"
    d="M 128 6
      L 128 43
      L 42 105
      L 6 94
      L 52 29
      z" 
  />

  <path 
    class="medium-side"
    d="M 42 105
      L 6 94
      L 6 172
      L 52 236 
      L 74 206
      z" 
  />

  <path 
    class="medium-side"
    d="M 52 236 
      L 74 206
      L 181 206
      L 204 236 
      L 128 262 
      z" 
  />

  <path 
    class="medium-side"
    d="M 181 206
      L 204 236 
      L 250 172
      L 250 94
      L 213 105
      z" 
  />

  <path 
    class="medium-side"
    d="M 213 105
      L 250 94
      L 204 29
      L 128 6
      L 128 43
      z" 
  />

  <path 
    class="top-side"
    d="M 128 43
      L 42 105
      L 74 206
      L 181 206
      L 213 105
      z" 
  />
 
  <path 
    class="stroke"
    d="M 128 6
      L 52 29
      L 6 94
      L 6 172
      L 52 236 
      L 128 262 
      L 204 236 
      L 250 172
      L 250 94
      L 204 29
      z" 
  />

</svg>
