<svg version="1.1"
     baseProfile="full"
     width="100" height="100"
     viewbox="0 0 252 290"
     xmlns="http://www.w3.org/2000/svg">

  <style>
    .stroke {
      fill: transparent;
      stroke: rgba(0, 0, 0, 0.4);
      stroke-width: 4px;
      stroke-linecap: round;
      stroke-linejoin: round;
    }
    .dark-side {
      fill: rgba(0, 0, 0, 0.35);
    }
    .medium-side {
      fill: rgba(0, 0, 0, 0.2);
    }
    .top-side {
      fill: transparent
    }
    .dark-side,
    .medium-side,
    .top-side {
      stroke: rgba(255, 255, 255, 0.1);
      stroke-width: 2px;
      stroke-linecap: round;
      stroke-linejoin: round;
    }
  </style>

  <path 
    class="base"
    d="M 126 4 
      L 4 75
      L 4 215
      L 126 286
      L 248 215
      L 248 75
      L 126 4 
      z" 
  />

  <path 
    class="dark-side"
    d="M 126 4 
      L 4 75
      L 47 94
      z" 
  />

  <path 
    class="dark-side"
    d="M 4 75
      L 47 94
      L 4 215
      z" 
  />

  <path 
    class="medium-side"
    d="M 47 94
      L 4 215
      L 126 232.5
      z" 
  />

  <path 
    class="dark-side"
    d="M 4 215
      L 126 232.5
      L 126 286
      z" 
  />

  <path 
    class="dark-side"
    d="M 126 232.5
      L 126 286
      L 248 215
      z" 
  />

  <path 
    class="medium-side"
    d="M 126 232.5
      L 248 215
      L 204 94
      z" 
  />

  <path 
    class="dark-side"
    d="M 248 215
      L 204 94
      L 248 75
      z" 
  />

  <path 
    class="dark-side"
    d="M 204 94
      L 248 75
      L 126 4 
      z" 
  />

  <path 
    class="medium-side"
    d="M 204 94
      L 126 4 
      L 47 94
      z" 
  />

  <path 
    class="top-side"
    d="M 47 94
      L 204 94
      L 126 232.5
      z" 
  />

  <path 
    class="stroke"
    d="M 126 4 
      L 4 75
      L 4 215
      L 126 286
      L 248 215
      L 248 75
      L 126 4 
      z" 
  />

</svg>
