<svg version="1.1"
     baseProfile="full"
     width="100" height="100"
     viewbox="0 0 300 340"
     xmlns="http://www.w3.org/2000/svg">

  <style>
    .stroke {
      fill: transparent;
      stroke: rgba(0, 0, 0, 0.4);
      stroke-width: 4px;
      stroke-linecap: round;
      stroke-linejoin: round;
    }
    .medium-side {
      fill: rgba(0, 0, 0, 0.2);
    }
    .top-side {
      fill: transparent;
      stroke: rgba(255, 255, 255, 0.1);
      stroke-width: 2px;
      stroke-linecap: round;
      stroke-linejoin: round;
    }
  </style>
  
  <path class="base" d="M50,50 h200 a20,20 0 0 1 20,20 v200 a20,20 0 0 1 -20,20 h-200 a20,20 0 0 1 -20,-20 v-200 a20,20 0 0 1 20,-20 z" fill="none" stroke="black" stroke-width="3" />
  <path class="medium-side" d="M50,50 h200 a20,20 0 0 1 20,20 v200 a20,20 0 0 1 -20,20 h-200 a20,20 0 0 1 -20,-20 v-200 a20,20 0 0 1 20,-20 z" fill="none" stroke="black" stroke-width="3" />
  
  <path class="top-side base" d="M70,70 h160 a20,20 0 0 1 20,20 v160 a20,20 0 0 1 -20,20 h-160 a20,20 0 0 1 -20,-20 v-160 a20,20 0 0 1 20,-20 z" fill="none" stroke="black" stroke-width="3" />
  
  <path class="stroke" d="M50,50 h200 a20,20 0 0 1 20,20 v200 a20,20 0 0 1 -20,20 h-200 a20,20 0 0 1 -20,-20 v-200 a20,20 0 0 1 20,-20 z" fill="none" stroke="black" stroke-width="3" />

</svg>